# xmcd CD database file
#
# Track frame offsets:
#	150
#	13388
#	29882
#	44326
#	62067
#	82888
#	105238
#	124278
#	141015
#	153977
#	170608
#
# Disc length: 2752 seconds
#
# Revision: 4
# Processed by: cddbd v1.5.1PL0 Copyright (c) Steve Scherf et al.
# Submitted via: CDex 1.51
#
DISCID=920abe0b
DTITLE=LES TRAVAILLEURS DE LA NUIT - Sortent de l'ombre
DYEAR=1900
DGENRE=Country
TTITLE0=Lost in Guantanamo
TTITLE1=Travailleurs de la nuit
TTITLE2=Mediacrite
TTITLE3=Lunique solution
TTITLE4=Mon ami Pierrot
TTITLE5=Panurgiens
TTITLE6=Exiles
TTITLE7=Alcohol Rebelde
TTITLE8=Brisons les chaines
TTITLE9=Paris, Paris
TTITLE10=Rudy don't care
EXTD=
EXTT0=
EXTT1=
EXTT2=
EXTT3=
EXTT4=
EXTT5=
EXTT6=
EXTT7=
EXTT8=
EXTT9=
EXTT10=
PLAYORDER=
